<?xml version="1.0" encoding="UTF-8" standalone="no"?><svg xmlns="http://www.w3.org/2000/svg" xmlns:xlink="http://www.w3.org/1999/xlink" contentScriptType="application/ecmascript" contentStyleType="text/css" height="669px" preserveAspectRatio="none" style="width:1779px;height:669px;" version="1.1" viewBox="0 0 1779 669" width="1779px" zoomAndPan="magnify"><defs><filter height="300%" id="f10gpun1dgmfi7" width="300%" x="-1" y="-1"><feGaussianBlur result="blurOut" stdDeviation="2.0"/><feColorMatrix in="blurOut" result="blurOut2" type="matrix" values="0 0 0 0 0 0 0 0 0 0 0 0 0 0 0 0 0 0 .4 0"/><feOffset dx="4.0" dy="4.0" in="blurOut2" result="blurOut3"/><feBlend in="SourceGraphic" in2="blurOut3" mode="normal"/></filter></defs><g><!--MD5=[ecaed46f78f8cfe1e9ce18477649be18]
class Plataforma--><rect fill="#FEFECE" filter="url(#f10gpun1dgmfi7)" height="52.8047" id="Plataforma" style="stroke: #A80036; stroke-width: 1.5;" width="119" x="6" y="109.5"/><ellipse cx="29.55" cy="125.5" fill="#ADD1B2" rx="11" ry="11" style="stroke: #A80036; stroke-width: 1.0;"/><path d="M32.5188,131.1406 Q31.9406,131.4375 31.3,131.5859 Q30.6594,131.7344 29.9563,131.7344 Q27.4563,131.7344 26.1359,130.0859 Q24.8156,128.4375 24.8156,125.3125 Q24.8156,122.1875 26.1359,120.5313 Q27.4563,118.875 29.9563,118.875 Q30.6594,118.875 31.3078,119.0313 Q31.9563,119.1875 32.5188,119.4844 L32.5188,122.2031 Q31.8938,121.625 31.3,121.3516 Q30.7063,121.0781 30.0813,121.0781 Q28.7375,121.0781 28.05,122.1484 Q27.3625,123.2188 27.3625,125.3125 Q27.3625,127.4063 28.05,128.4766 Q28.7375,129.5469 30.0813,129.5469 Q30.7063,129.5469 31.3,129.2734 Q31.8938,129 32.5188,128.4219 L32.5188,131.1406 Z "/><text fill="#000000" font-family="sans-serif" font-size="12" lengthAdjust="spacingAndGlyphs" textLength="68" x="45.45" y="129.6543">Plataforma</text><line style="stroke: #A80036; stroke-width: 1.5;" x1="7" x2="124" y1="141.5" y2="141.5"/><text fill="#000000" font-family="sans-serif" font-size="11" lengthAdjust="spacingAndGlyphs" textLength="107" x="12" y="155.7104">-String designacao</text><!--MD5=[807977ceb130c090ed5febfb6de2bdea]
class Organizacao--><rect fill="#FEFECE" filter="url(#f10gpun1dgmfi7)" height="104.0234" id="Organizacao" style="stroke: #A80036; stroke-width: 1.5;" width="109" x="482" y="554"/><ellipse cx="497" cy="570" fill="#ADD1B2" rx="11" ry="11" style="stroke: #A80036; stroke-width: 1.0;"/><path d="M499.9688,575.6406 Q499.3906,575.9375 498.75,576.0859 Q498.1094,576.2344 497.4063,576.2344 Q494.9063,576.2344 493.5859,574.5859 Q492.2656,572.9375 492.2656,569.8125 Q492.2656,566.6875 493.5859,565.0313 Q494.9063,563.375 497.4063,563.375 Q498.1094,563.375 498.7578,563.5313 Q499.4063,563.6875 499.9688,563.9844 L499.9688,566.7031 Q499.3438,566.125 498.75,565.8516 Q498.1563,565.5781 497.5313,565.5781 Q496.1875,565.5781 495.5,566.6484 Q494.8125,567.7188 494.8125,569.8125 Q494.8125,571.9063 495.5,572.9766 Q496.1875,574.0469 497.5313,574.0469 Q498.1563,574.0469 498.75,573.7734 Q499.3438,573.5 499.9688,572.9219 L499.9688,575.6406 Z "/><text fill="#000000" font-family="sans-serif" font-size="12" lengthAdjust="spacingAndGlyphs" textLength="77" x="511" y="574.1543">Organizacao</text><line style="stroke: #A80036; stroke-width: 1.5;" x1="483" x2="590" y1="586" y2="586"/><text fill="#000000" font-family="sans-serif" font-size="11" lengthAdjust="spacingAndGlyphs" textLength="74" x="488" y="600.2104">-String nome</text><text fill="#000000" font-family="sans-serif" font-size="11" lengthAdjust="spacingAndGlyphs" textLength="59" x="488" y="613.0151">-String NIF</text><text fill="#000000" font-family="sans-serif" font-size="11" lengthAdjust="spacingAndGlyphs" textLength="86" x="488" y="625.8198">-String website</text><text fill="#000000" font-family="sans-serif" font-size="11" lengthAdjust="spacingAndGlyphs" textLength="88" x="488" y="638.6245">-String telefone</text><text fill="#000000" font-family="sans-serif" font-size="11" lengthAdjust="spacingAndGlyphs" textLength="73" x="488" y="651.4292">-String email</text><!--MD5=[ac8682ea5466d223e49472789fb200d2]
class Colaborador--><rect fill="#FEFECE" filter="url(#f10gpun1dgmfi7)" height="91.2188" id="Colaborador" style="stroke: #A80036; stroke-width: 1.5;" width="109" x="1058" y="481.5"/><ellipse cx="1073" cy="497.5" fill="#ADD1B2" rx="11" ry="11" style="stroke: #A80036; stroke-width: 1.0;"/><path d="M1075.9688,503.1406 Q1075.3906,503.4375 1074.75,503.5859 Q1074.1094,503.7344 1073.4063,503.7344 Q1070.9063,503.7344 1069.5859,502.0859 Q1068.2656,500.4375 1068.2656,497.3125 Q1068.2656,494.1875 1069.5859,492.5313 Q1070.9063,490.875 1073.4063,490.875 Q1074.1094,490.875 1074.7578,491.0313 Q1075.4063,491.1875 1075.9688,491.4844 L1075.9688,494.2031 Q1075.3438,493.625 1074.75,493.3516 Q1074.1563,493.0781 1073.5313,493.0781 Q1072.1875,493.0781 1071.5,494.1484 Q1070.8125,495.2188 1070.8125,497.3125 Q1070.8125,499.4063 1071.5,500.4766 Q1072.1875,501.5469 1073.5313,501.5469 Q1074.1563,501.5469 1074.75,501.2734 Q1075.3438,501 1075.9688,500.4219 L1075.9688,503.1406 Z "/><text fill="#000000" font-family="sans-serif" font-size="12" lengthAdjust="spacingAndGlyphs" textLength="77" x="1087" y="501.6543">Colaborador</text><line style="stroke: #A80036; stroke-width: 1.5;" x1="1059" x2="1166" y1="513.5" y2="513.5"/><text fill="#000000" font-family="sans-serif" font-size="11" lengthAdjust="spacingAndGlyphs" textLength="74" x="1064" y="527.7104">-String nome</text><text fill="#000000" font-family="sans-serif" font-size="11" lengthAdjust="spacingAndGlyphs" textLength="80" x="1064" y="540.5151">-String funcao</text><text fill="#000000" font-family="sans-serif" font-size="11" lengthAdjust="spacingAndGlyphs" textLength="88" x="1064" y="553.3198">-String telefone</text><text fill="#000000" font-family="sans-serif" font-size="11" lengthAdjust="spacingAndGlyphs" textLength="73" x="1064" y="566.1245">-String email</text><!--MD5=[d0e9f237fb3c72e1245c36c562ad52c4]
class TipoRegimento--><rect fill="#FEFECE" filter="url(#f10gpun1dgmfi7)" height="65.6094" id="TipoRegimento" style="stroke: #A80036; stroke-width: 1.5;" width="149" x="1038" y="120"/><ellipse cx="1063.8" cy="136" fill="#ADD1B2" rx="11" ry="11" style="stroke: #A80036; stroke-width: 1.0;"/><path d="M1066.7688,141.6406 Q1066.1906,141.9375 1065.55,142.0859 Q1064.9094,142.2344 1064.2063,142.2344 Q1061.7063,142.2344 1060.3859,140.5859 Q1059.0656,138.9375 1059.0656,135.8125 Q1059.0656,132.6875 1060.3859,131.0313 Q1061.7063,129.375 1064.2063,129.375 Q1064.9094,129.375 1065.5578,129.5313 Q1066.2063,129.6875 1066.7688,129.9844 L1066.7688,132.7031 Q1066.1438,132.125 1065.55,131.8516 Q1064.9563,131.5781 1064.3313,131.5781 Q1062.9875,131.5781 1062.3,132.6484 Q1061.6125,133.7188 1061.6125,135.8125 Q1061.6125,137.9063 1062.3,138.9766 Q1062.9875,140.0469 1064.3313,140.0469 Q1064.9563,140.0469 1065.55,139.7734 Q1066.1438,139.5 1066.7688,138.9219 L1066.7688,141.6406 Z "/><text fill="#000000" font-family="sans-serif" font-size="12" lengthAdjust="spacingAndGlyphs" textLength="93" x="1080.2" y="140.1543">TipoRegimento</text><line style="stroke: #A80036; stroke-width: 1.5;" x1="1039" x2="1186" y1="152" y2="152"/><text fill="#000000" font-family="sans-serif" font-size="11" lengthAdjust="spacingAndGlyphs" textLength="107" x="1044" y="166.2104">-String designacao</text><text fill="#000000" font-family="sans-serif" font-size="11" lengthAdjust="spacingAndGlyphs" textLength="137" x="1044" y="179.0151">-String descricaoRegras</text><!--MD5=[1f687b5315377fe49fca59b457947463]
class Freelancer--><rect fill="#FEFECE" filter="url(#f10gpun1dgmfi7)" height="91.2188" id="Freelancer" style="stroke: #A80036; stroke-width: 1.5;" width="100" x="1668" y="79.5"/><ellipse cx="1683.45" cy="95.5" fill="#ADD1B2" rx="11" ry="11" style="stroke: #A80036; stroke-width: 1.0;"/><path d="M1686.4188,101.1406 Q1685.8406,101.4375 1685.2,101.5859 Q1684.5594,101.7344 1683.8563,101.7344 Q1681.3563,101.7344 1680.0359,100.0859 Q1678.7156,98.4375 1678.7156,95.3125 Q1678.7156,92.1875 1680.0359,90.5313 Q1681.3563,88.875 1683.8563,88.875 Q1684.5594,88.875 1685.2078,89.0313 Q1685.8563,89.1875 1686.4188,89.4844 L1686.4188,92.2031 Q1685.7938,91.625 1685.2,91.3516 Q1684.6063,91.0781 1683.9813,91.0781 Q1682.6375,91.0781 1681.95,92.1484 Q1681.2625,93.2188 1681.2625,95.3125 Q1681.2625,97.4063 1681.95,98.4766 Q1682.6375,99.5469 1683.9813,99.5469 Q1684.6063,99.5469 1685.2,99.2734 Q1685.7938,99 1686.4188,98.4219 L1686.4188,101.1406 Z "/><text fill="#000000" font-family="sans-serif" font-size="12" lengthAdjust="spacingAndGlyphs" textLength="67" x="1697.55" y="99.6543">Freelancer</text><line style="stroke: #A80036; stroke-width: 1.5;" x1="1669" x2="1767" y1="111.5" y2="111.5"/><text fill="#000000" font-family="sans-serif" font-size="11" lengthAdjust="spacingAndGlyphs" textLength="74" x="1674" y="125.7104">-String nome</text><text fill="#000000" font-family="sans-serif" font-size="11" lengthAdjust="spacingAndGlyphs" textLength="59" x="1674" y="138.5151">-String NIF</text><text fill="#000000" font-family="sans-serif" font-size="11" lengthAdjust="spacingAndGlyphs" textLength="88" x="1674" y="151.3198">-String telefone</text><text fill="#000000" font-family="sans-serif" font-size="11" lengthAdjust="spacingAndGlyphs" textLength="73" x="1674" y="164.1245">-String email</text><!--MD5=[19db0db7353a4bf63eefc676e5ba9b80]
class Anuncio--><rect fill="#FEFECE" filter="url(#f10gpun1dgmfi7)" height="116.8281" id="Anuncio" style="stroke: #A80036; stroke-width: 1.5;" width="155" x="297" y="195.5"/><ellipse cx="345.25" cy="211.5" fill="#ADD1B2" rx="11" ry="11" style="stroke: #A80036; stroke-width: 1.0;"/><path d="M348.2188,217.1406 Q347.6406,217.4375 347,217.5859 Q346.3594,217.7344 345.6563,217.7344 Q343.1563,217.7344 341.8359,216.0859 Q340.5156,214.4375 340.5156,211.3125 Q340.5156,208.1875 341.8359,206.5313 Q343.1563,204.875 345.6563,204.875 Q346.3594,204.875 347.0078,205.0313 Q347.6563,205.1875 348.2188,205.4844 L348.2188,208.2031 Q347.5938,207.625 347,207.3516 Q346.4063,207.0781 345.7813,207.0781 Q344.4375,207.0781 343.75,208.1484 Q343.0625,209.2188 343.0625,211.3125 Q343.0625,213.4063 343.75,214.4766 Q344.4375,215.5469 345.7813,215.5469 Q346.4063,215.5469 347,215.2734 Q347.5938,215 348.2188,214.4219 L348.2188,217.1406 Z "/><text fill="#000000" font-family="sans-serif" font-size="12" lengthAdjust="spacingAndGlyphs" textLength="50" x="365.75" y="215.6543">Anuncio</text><line style="stroke: #A80036; stroke-width: 1.5;" x1="298" x2="451" y1="227.5" y2="227.5"/><text fill="#000000" font-family="sans-serif" font-size="11" lengthAdjust="spacingAndGlyphs" textLength="141" x="303" y="241.7104">-Date dtInicioPublicitacao</text><text fill="#000000" font-family="sans-serif" font-size="11" lengthAdjust="spacingAndGlyphs" textLength="132" x="303" y="254.5151">-Date dtFimPublicitacao</text><text fill="#000000" font-family="sans-serif" font-size="11" lengthAdjust="spacingAndGlyphs" textLength="143" x="303" y="267.3198">-Date dtInicioCandidatura</text><text fill="#000000" font-family="sans-serif" font-size="11" lengthAdjust="spacingAndGlyphs" textLength="134" x="303" y="280.1245">-Date dtFimCandidatura</text><text fill="#000000" font-family="sans-serif" font-size="11" lengthAdjust="spacingAndGlyphs" textLength="124" x="303" y="292.9292">-Date dtInicioSeriacao</text><text fill="#000000" font-family="sans-serif" font-size="11" lengthAdjust="spacingAndGlyphs" textLength="115" x="303" y="305.7339">-Date dtFimSeriacao</text><!--MD5=[475c5b924ed41035684e2831311827d2]
class Candidatura--><rect fill="#FEFECE" filter="url(#f10gpun1dgmfi7)" height="104.0234" id="Candidatura" style="stroke: #A80036; stroke-width: 1.5;" width="148" x="1348.5" y="187"/><ellipse cx="1381.05" cy="203" fill="#ADD1B2" rx="11" ry="11" style="stroke: #A80036; stroke-width: 1.0;"/><path d="M1384.0188,208.6406 Q1383.4406,208.9375 1382.8,209.0859 Q1382.1594,209.2344 1381.4563,209.2344 Q1378.9563,209.2344 1377.6359,207.5859 Q1376.3156,205.9375 1376.3156,202.8125 Q1376.3156,199.6875 1377.6359,198.0313 Q1378.9563,196.375 1381.4563,196.375 Q1382.1594,196.375 1382.8078,196.5313 Q1383.4563,196.6875 1384.0188,196.9844 L1384.0188,199.7031 Q1383.3938,199.125 1382.8,198.8516 Q1382.2063,198.5781 1381.5813,198.5781 Q1380.2375,198.5781 1379.55,199.6484 Q1378.8625,200.7188 1378.8625,202.8125 Q1378.8625,204.9063 1379.55,205.9766 Q1380.2375,207.0469 1381.5813,207.0469 Q1382.2063,207.0469 1382.8,206.7734 Q1383.3938,206.5 1384.0188,205.9219 L1384.0188,208.6406 Z "/><text fill="#000000" font-family="sans-serif" font-size="12" lengthAdjust="spacingAndGlyphs" textLength="77" x="1398.95" y="207.1543">Candidatura</text><line style="stroke: #A80036; stroke-width: 1.5;" x1="1349.5" x2="1495.5" y1="219" y2="219"/><text fill="#000000" font-family="sans-serif" font-size="11" lengthAdjust="spacingAndGlyphs" textLength="128" x="1354.5" y="233.2104">-Date dataCandidatura</text><text fill="#000000" font-family="sans-serif" font-size="11" lengthAdjust="spacingAndGlyphs" textLength="136" x="1354.5" y="246.0151">-Double valorPretendido</text><text fill="#000000" font-family="sans-serif" font-size="11" lengthAdjust="spacingAndGlyphs" textLength="85" x="1354.5" y="258.8198">-Integer nrDias</text><text fill="#000000" font-family="sans-serif" font-size="11" lengthAdjust="spacingAndGlyphs" textLength="134" x="1354.5" y="271.6245">-String txtApresentacao</text><text fill="#000000" font-family="sans-serif" font-size="11" lengthAdjust="spacingAndGlyphs" textLength="112" x="1354.5" y="284.4292">-String txtMotivacao</text><!--MD5=[716bba0e94eea125d5a66a891f2c3c34]
class Classificacao--><rect fill="#FEFECE" filter="url(#f10gpun1dgmfi7)" height="65.6094" id="Classificacao" style="stroke: #A80036; stroke-width: 1.5;" width="118" x="1053.5" y="292"/><ellipse cx="1070.75" cy="308" fill="#ADD1B2" rx="11" ry="11" style="stroke: #A80036; stroke-width: 1.0;"/><path d="M1073.7188,313.6406 Q1073.1406,313.9375 1072.5,314.0859 Q1071.8594,314.2344 1071.1563,314.2344 Q1068.6563,314.2344 1067.3359,312.5859 Q1066.0156,310.9375 1066.0156,307.8125 Q1066.0156,304.6875 1067.3359,303.0313 Q1068.6563,301.375 1071.1563,301.375 Q1071.8594,301.375 1072.5078,301.5313 Q1073.1563,301.6875 1073.7188,301.9844 L1073.7188,304.7031 Q1073.0938,304.125 1072.5,303.8516 Q1071.9063,303.5781 1071.2813,303.5781 Q1069.9375,303.5781 1069.25,304.6484 Q1068.5625,305.7188 1068.5625,307.8125 Q1068.5625,309.9063 1069.25,310.9766 Q1069.9375,312.0469 1071.2813,312.0469 Q1071.9063,312.0469 1072.5,311.7734 Q1073.0938,311.5 1073.7188,310.9219 L1073.7188,313.6406 Z "/><text fill="#000000" font-family="sans-serif" font-size="12" lengthAdjust="spacingAndGlyphs" textLength="81" x="1085.25" y="312.1543">Classificacao</text><line style="stroke: #A80036; stroke-width: 1.5;" x1="1054.5" x2="1170.5" y1="324" y2="324"/><text fill="#000000" font-family="sans-serif" font-size="11" lengthAdjust="spacingAndGlyphs" textLength="77" x="1059.5" y="338.2104">-Integer lugar</text><text fill="#000000" font-family="sans-serif" font-size="11" lengthAdjust="spacingAndGlyphs" textLength="106" x="1059.5" y="351.0151">-String justificacao</text><!--MD5=[aca0f236260d30190baee83e33cc7802]
class ProcessoSeriacao--><rect fill="#FEFECE" filter="url(#f10gpun1dgmfi7)" height="65.6094" id="ProcessoSeriacao" style="stroke: #A80036; stroke-width: 1.5;" width="145" x="621" y="320"/><ellipse cx="636" cy="336" fill="#ADD1B2" rx="11" ry="11" style="stroke: #A80036; stroke-width: 1.0;"/><path d="M638.9688,341.6406 Q638.3906,341.9375 637.75,342.0859 Q637.1094,342.2344 636.4063,342.2344 Q633.9063,342.2344 632.5859,340.5859 Q631.2656,338.9375 631.2656,335.8125 Q631.2656,332.6875 632.5859,331.0313 Q633.9063,329.375 636.4063,329.375 Q637.1094,329.375 637.7578,329.5313 Q638.4063,329.6875 638.9688,329.9844 L638.9688,332.7031 Q638.3438,332.125 637.75,331.8516 Q637.1563,331.5781 636.5313,331.5781 Q635.1875,331.5781 634.5,332.6484 Q633.8125,333.7188 633.8125,335.8125 Q633.8125,337.9063 634.5,338.9766 Q635.1875,340.0469 636.5313,340.0469 Q637.1563,340.0469 637.75,339.7734 Q638.3438,339.5 638.9688,338.9219 L638.9688,341.6406 Z "/><text fill="#000000" font-family="sans-serif" font-size="12" lengthAdjust="spacingAndGlyphs" textLength="113" x="650" y="340.1543">ProcessoSeriacao</text><line style="stroke: #A80036; stroke-width: 1.5;" x1="622" x2="765" y1="352" y2="352"/><text fill="#000000" font-family="sans-serif" font-size="11" lengthAdjust="spacingAndGlyphs" textLength="118" x="627" y="366.2104">-Date dataRealizacao</text><text fill="#000000" font-family="sans-serif" font-size="11" lengthAdjust="spacingAndGlyphs" textLength="99" x="627" y="379.0151">-String conclusao</text><!--MD5=[8bc17582e55ad67b52a8caaa08816a5d]
class ProcessoAtribuicao--><rect fill="#FEFECE" filter="url(#f10gpun1dgmfi7)" height="52.8047" id="ProcessoAtribuicao" style="stroke: #A80036; stroke-width: 1.5;" width="153" x="1036" y="393.5"/><ellipse cx="1051" cy="409.5" fill="#ADD1B2" rx="11" ry="11" style="stroke: #A80036; stroke-width: 1.0;"/><path d="M1053.9688,415.1406 Q1053.3906,415.4375 1052.75,415.5859 Q1052.1094,415.7344 1051.4063,415.7344 Q1048.9063,415.7344 1047.5859,414.0859 Q1046.2656,412.4375 1046.2656,409.3125 Q1046.2656,406.1875 1047.5859,404.5313 Q1048.9063,402.875 1051.4063,402.875 Q1052.1094,402.875 1052.7578,403.0313 Q1053.4063,403.1875 1053.9688,403.4844 L1053.9688,406.2031 Q1053.3438,405.625 1052.75,405.3516 Q1052.1563,405.0781 1051.5313,405.0781 Q1050.1875,405.0781 1049.5,406.1484 Q1048.8125,407.2188 1048.8125,409.3125 Q1048.8125,411.4063 1049.5,412.4766 Q1050.1875,413.5469 1051.5313,413.5469 Q1052.1563,413.5469 1052.75,413.2734 Q1053.3438,413 1053.9688,412.4219 L1053.9688,415.1406 Z "/><text fill="#000000" font-family="sans-serif" font-size="12" lengthAdjust="spacingAndGlyphs" textLength="121" x="1065" y="413.6543">ProcessoAtribuicao</text><line style="stroke: #A80036; stroke-width: 1.5;" x1="1037" x2="1188" y1="425.5" y2="425.5"/><text fill="#000000" font-family="sans-serif" font-size="11" lengthAdjust="spacingAndGlyphs" textLength="115" x="1042" y="439.7104">-Date dataAtribuicao</text><!--MD5=[5d1ab724c50d81e7fd2e67537350aa20]
class Adjudicacao--><rect fill="#FEFECE" filter="url(#f10gpun1dgmfi7)" height="155.2422" id="Adjudicacao" style="stroke: #A80036; stroke-width: 1.5;" width="175" x="1335" y="342.5"/><ellipse cx="1380.25" cy="358.5" fill="#ADD1B2" rx="11" ry="11" style="stroke: #A80036; stroke-width: 1.0;"/><path d="M1383.2188,364.1406 Q1382.6406,364.4375 1382,364.5859 Q1381.3594,364.7344 1380.6563,364.7344 Q1378.1563,364.7344 1376.8359,363.0859 Q1375.5156,361.4375 1375.5156,358.3125 Q1375.5156,355.1875 1376.8359,353.5313 Q1378.1563,351.875 1380.6563,351.875 Q1381.3594,351.875 1382.0078,352.0313 Q1382.6563,352.1875 1383.2188,352.4844 L1383.2188,355.2031 Q1382.5938,354.625 1382,354.3516 Q1381.4063,354.0781 1380.7813,354.0781 Q1379.4375,354.0781 1378.75,355.1484 Q1378.0625,356.2188 1378.0625,358.3125 Q1378.0625,360.4063 1378.75,361.4766 Q1379.4375,362.5469 1380.7813,362.5469 Q1381.4063,362.5469 1382,362.2734 Q1382.5938,362 1383.2188,361.4219 L1383.2188,364.1406 Z "/><text fill="#000000" font-family="sans-serif" font-size="12" lengthAdjust="spacingAndGlyphs" textLength="76" x="1400.75" y="362.6543">Adjudicacao</text><line style="stroke: #A80036; stroke-width: 1.5;" x1="1336" x2="1509" y1="374.5" y2="374.5"/><text fill="#000000" font-family="sans-serif" font-size="11" lengthAdjust="spacingAndGlyphs" textLength="110" x="1341" y="388.7104">-String organizacao</text><text fill="#000000" font-family="sans-serif" font-size="11" lengthAdjust="spacingAndGlyphs" textLength="100" x="1341" y="401.5151">-String freelancer</text><text fill="#000000" font-family="sans-serif" font-size="11" lengthAdjust="spacingAndGlyphs" textLength="106" x="1341" y="414.3198">-String descTarefa</text><text fill="#000000" font-family="sans-serif" font-size="11" lengthAdjust="spacingAndGlyphs" textLength="163" x="1341" y="427.1245">-Date inicPeriodoAdjudicacao</text><text fill="#000000" font-family="sans-serif" font-size="11" lengthAdjust="spacingAndGlyphs" textLength="162" x="1341" y="439.9292">-Date fimPeriodoAdjudicacao</text><text fill="#000000" font-family="sans-serif" font-size="11" lengthAdjust="spacingAndGlyphs" textLength="50" x="1341" y="452.7339">-int valor</text><text fill="#000000" font-family="sans-serif" font-size="11" lengthAdjust="spacingAndGlyphs" textLength="102" x="1341" y="465.5386">-String refAnuncio</text><text fill="#000000" font-family="sans-serif" font-size="11" lengthAdjust="spacingAndGlyphs" textLength="126" x="1341" y="478.3433">-Date dataAdjudicacao</text><text fill="#000000" font-family="sans-serif" font-size="11" lengthAdjust="spacingAndGlyphs" textLength="137" x="1341" y="491.1479">-int numSequencialPAno</text><!--MD5=[1c2ad462e362697fcdc859a6327d55c7]
link Plataforma to Organizacao--><path d="M88.1378,162.6578 C105.9153,183.3169 131.5083,212.4601 155,237 C267.6242,354.6496 406.5886,485.7414 481.834,555.6309 " fill="none" id="Plataforma-Organizacao" style="stroke: #A80036; stroke-width: 1.0;"/><text fill="#000000" font-family="sans-serif" font-size="13" lengthAdjust="spacingAndGlyphs" textLength="97" x="156" y="233.0669">tem registadas</text><polygon fill="#000000" points="256,227.0664,262,230.0664,256,233.0664,256,227.0664" style="stroke: #000000; stroke-width: 1.0;"/><text fill="#000000" font-family="sans-serif" font-size="13" lengthAdjust="spacingAndGlyphs" textLength="8" x="84.2148" y="182.2326">1</text><text fill="#000000" font-family="sans-serif" font-size="13" lengthAdjust="spacingAndGlyphs" textLength="7" x="467.0179" y="561.9446">*</text><!--MD5=[956ecced288de5de0c5f024757c210bf]
link Plataforma to TipoRegimento--><path d="M125.2143,135.7754 C274.0125,135.4167 673.2798,135.6875 1006,147 C1016.2721,147.3493 1027.0958,147.8291 1037.7492,148.3664 " fill="none" id="Plataforma-TipoRegimento" style="stroke: #A80036; stroke-width: 1.0;"/><text fill="#000000" font-family="sans-serif" font-size="13" lengthAdjust="spacingAndGlyphs" textLength="49" x="505.5" y="133.0669">suporta</text><polygon fill="#000000" points="557.5,127.0664,563.5,130.0664,557.5,133.0664,557.5,127.0664" style="stroke: #000000; stroke-width: 1.0;"/><text fill="#000000" font-family="sans-serif" font-size="13" lengthAdjust="spacingAndGlyphs" textLength="8" x="132.9795" y="148.749">1</text><text fill="#000000" font-family="sans-serif" font-size="13" lengthAdjust="spacingAndGlyphs" textLength="7" x="1023.0464" y="160.7412">*</text><!--MD5=[3d9e8e0d764359bffb897b36dc4b633a]
link Plataforma to Anuncio--><path d="M125.0783,158.7516 C174.0078,177.4366 243.6751,204.041 296.95,224.3854 " fill="none" id="Plataforma-Anuncio" style="stroke: #A80036; stroke-width: 1.0;"/><text fill="#000000" font-family="sans-serif" font-size="13" lengthAdjust="spacingAndGlyphs" textLength="53" x="178" y="167.0669">publicita</text><polygon fill="#000000" points="234,161.0664,240,164.0664,234,167.0664,234,161.0664" style="stroke: #000000; stroke-width: 1.0;"/><text fill="#000000" font-family="sans-serif" font-size="13" lengthAdjust="spacingAndGlyphs" textLength="8" x="132.8269" y="174.5254">1</text><text fill="#000000" font-family="sans-serif" font-size="13" lengthAdjust="spacingAndGlyphs" textLength="7" x="281.9716" y="234.2904">*</text><!--MD5=[39c0de7668d8063a4eb96c23050b3de2]
link Plataforma to Freelancer--><path d="M109.2689,109.4127 C167.5945,76.5744 275.0313,25 374.5,25 C374.5,25 374.5,25 1422.5,25 C1512.6765,25 1610.552,67.3008 1667.9663,96.8783 " fill="none" id="Plataforma-Freelancer" style="stroke: #A80036; stroke-width: 1.0;"/><text fill="#000000" font-family="sans-serif" font-size="13" lengthAdjust="spacingAndGlyphs" textLength="53" x="868" y="21.0669">tem/usa</text><polygon fill="#000000" points="924,15.0664,930,18.0664,924,21.0664,924,15.0664" style="stroke: #000000; stroke-width: 1.0;"/><text fill="#000000" font-family="sans-serif" font-size="13" lengthAdjust="spacingAndGlyphs" textLength="8" x="110.4655" y="98.6348">1</text><text fill="#000000" font-family="sans-serif" font-size="13" lengthAdjust="spacingAndGlyphs" textLength="7" x="1653.1035" y="105.9101">*</text><!--MD5=[567db691f9836c63f305bad1024cbc66]
link Organizacao to Colaborador--><path d="M591.0603,601.9107 C678.9406,594.809 857.0636,578.285 1006,551 C1022.9651,547.892 1041.3262,543.961 1057.9472,540.1848 " fill="none" id="Organizacao-Colaborador" style="stroke: #A80036; stroke-width: 1.0;"/><text fill="#000000" font-family="sans-serif" font-size="13" lengthAdjust="spacingAndGlyphs" textLength="26" x="674" y="581.0669">tem</text><polygon fill="#000000" points="703,575.0664,709,578.0664,703,581.0664,703,575.0664" style="stroke: #000000; stroke-width: 1.0;"/><text fill="#000000" font-family="sans-serif" font-size="13" lengthAdjust="spacingAndGlyphs" textLength="8" x="598.9293" y="614.4433">1</text><text fill="#000000" font-family="sans-serif" font-size="13" lengthAdjust="spacingAndGlyphs" textLength="23" x="1026.897" y="554.7674">1..*</text><!--MD5=[3fb03004f687adcfc695220fdd65ad26]
link Anuncio to TipoRegimento--><path d="M452.0667,234.0824 C462.1,231.8472 472.2673,229.7494 482,228 C681.3591,192.1653 919.3616,169.1331 1037.8236,158.9868 " fill="none" id="Anuncio-TipoRegimento" style="stroke: #A80036; stroke-width: 1.0;"/><text fill="#000000" font-family="sans-serif" font-size="13" lengthAdjust="spacingAndGlyphs" textLength="74" x="650" y="183.0669">rege-se por</text><polygon fill="#000000" points="727,177.0664,733,180.0664,727,183.0664,727,177.0664" style="stroke: #000000; stroke-width: 1.0;"/><text fill="#000000" font-family="sans-serif" font-size="13" lengthAdjust="spacingAndGlyphs" textLength="7" x="460.0467" y="244.9419">*</text><text fill="#000000" font-family="sans-serif" font-size="13" lengthAdjust="spacingAndGlyphs" textLength="8" x="1022.0789" y="172.4071">1</text><!--MD5=[0a535575571876f6213287bf563a867d]
link Anuncio to Colaborador--><path d="M445.0002,312.5121 C524.4735,374.2247 660.3667,467.3631 796,503 C885.5385,526.5258 993.8629,529.5099 1057.7557,528.7816 " fill="none" id="Anuncio-Colaborador" style="stroke: #A80036; stroke-width: 1.0;"/><text fill="#000000" font-family="sans-serif" font-size="13" lengthAdjust="spacingAndGlyphs" textLength="86" x="644" y="428.0669">publicado por</text><polygon fill="#000000" points="733,422.0664,739,425.0664,733,428.0664,733,422.0664" style="stroke: #000000; stroke-width: 1.0;"/><text fill="#000000" font-family="sans-serif" font-size="13" lengthAdjust="spacingAndGlyphs" textLength="7" x="445.7471" y="332.2293">*</text><text fill="#000000" font-family="sans-serif" font-size="13" lengthAdjust="spacingAndGlyphs" textLength="8" x="1041.8619" y="525.0743">1</text><!--MD5=[27b52c98fcb5387c047ce09b42fcb62d]
link Anuncio to Candidatura--><path d="M452.4141,252.8848 C647.8539,250.0875 1156.9097,242.8014 1348.3042,240.062 " fill="none" id="Anuncio-Candidatura" style="stroke: #A80036; stroke-width: 1.0;"/><text fill="#000000" font-family="sans-serif" font-size="13" lengthAdjust="spacingAndGlyphs" textLength="44" x="872.5" y="241.0669">recebe</text><polygon fill="#000000" points="919.5,235.0664,925.5,238.0664,919.5,241.0664,919.5,235.0664" style="stroke: #000000; stroke-width: 1.0;"/><text fill="#000000" font-family="sans-serif" font-size="13" lengthAdjust="spacingAndGlyphs" textLength="8" x="459.9656" y="265.5543">1</text><text fill="#000000" font-family="sans-serif" font-size="13" lengthAdjust="spacingAndGlyphs" textLength="7" x="1333.2918" y="253.0175">*</text><!--MD5=[02d330b3691aaed85c2b7230cc23c1df]
link Anuncio to ProcessoSeriacao--><path d="M452.1784,286.3627 C462.147,290.1339 472.2679,293.7784 482,297 C527.6156,312.0999 579.7931,325.9506 620.9094,336.0997 " fill="none" id="Anuncio-ProcessoSeriacao" style="stroke: #A80036; stroke-width: 1.0;"/><text fill="#000000" font-family="sans-serif" font-size="13" lengthAdjust="spacingAndGlyphs" textLength="55" x="502.5" y="293.0669">espoleta</text><polygon fill="#000000" points="560.5,287.0664,566.5,290.0664,560.5,293.0664,560.5,287.0664" style="stroke: #000000; stroke-width: 1.0;"/><text fill="#000000" font-family="sans-serif" font-size="13" lengthAdjust="spacingAndGlyphs" textLength="8" x="459.9634" y="302.2435">1</text><text fill="#000000" font-family="sans-serif" font-size="13" lengthAdjust="spacingAndGlyphs" textLength="24" x="589.1112" y="347.3241">0..1</text><!--MD5=[a66e767a4304f5fa76db98d7839a7a61]
link Candidatura to Freelancer--><path d="M1496.6857,210.3801 C1550.197,189.7362 1620.9924,162.4243 1667.941,144.3121 " fill="none" id="Candidatura-Freelancer" style="stroke: #A80036; stroke-width: 1.0;"/><text fill="#000000" font-family="sans-serif" font-size="13" lengthAdjust="spacingAndGlyphs" textLength="83" x="1541" y="155.0669">realizada por</text><polygon fill="#000000" points="1627,149.0664,1633,152.0664,1627,155.0664,1627,149.0664" style="stroke: #000000; stroke-width: 1.0;"/><text fill="#000000" font-family="sans-serif" font-size="13" lengthAdjust="spacingAndGlyphs" textLength="7" x="1504.697" y="220.2746">*</text><text fill="#000000" font-family="sans-serif" font-size="13" lengthAdjust="spacingAndGlyphs" textLength="8" x="1652.0011" y="160.3107">1</text><!--MD5=[577fefe1351fe0f89ea5388d9641a019]
link ProcessoSeriacao to TipoRegimento--><path d="M766.0094,340.2289 C776.0817,338.4659 786.2982,336.6834 796,335 C889.3007,318.8106 925.5277,348.9131 1006,299 C1028.7294,284.902 1068.4235,224.8208 1092.4025,186.261 " fill="none" id="ProcessoSeriacao-TipoRegimento" style="stroke: #A80036; stroke-width: 1.0;"/><text fill="#000000" font-family="sans-serif" font-size="13" lengthAdjust="spacingAndGlyphs" textLength="195" x="797" y="295.0669">decorre em concordância com</text><polygon fill="#000000" points="995,289.0664,1001,292.0664,995,295.0664,995,289.0664" style="stroke: #000000; stroke-width: 1.0;"/><text fill="#000000" font-family="sans-serif" font-size="13" lengthAdjust="spacingAndGlyphs" textLength="7" x="773.8479" y="351.7792">*</text><text fill="#000000" font-family="sans-serif" font-size="13" lengthAdjust="spacingAndGlyphs" textLength="8" x="1080.1101" y="205.6351">1</text><!--MD5=[d8cba5363504d1c2665cc78c5e9b9c32]
link ProcessoSeriacao to Colaborador--><path d="M725.4657,386.0341 C744.4662,403.9831 769.8963,425.2559 796,439 C841.4813,462.9469 979.8234,496.7985 1057.7117,514.7351 " fill="none" id="ProcessoSeriacao-Colaborador" style="stroke: #A80036; stroke-width: 1.0;"/><text fill="#000000" font-family="sans-serif" font-size="13" lengthAdjust="spacingAndGlyphs" textLength="83" x="853" y="435.0669">realizado por</text><polygon fill="#000000" points="939,429.0664,945,432.0664,939,435.0664,939,429.0664" style="stroke: #000000; stroke-width: 1.0;"/><text fill="#000000" font-family="sans-serif" font-size="13" lengthAdjust="spacingAndGlyphs" textLength="8" x="722.6219" y="405.6227">1</text><text fill="#000000" font-family="sans-serif" font-size="13" lengthAdjust="spacingAndGlyphs" textLength="23" x="1027.0471" y="509.5117">1..*</text><!--MD5=[52bd50d7906bad09d4dfcc260d1229dc]
link ProcessoSeriacao to Classificacao--><path d="M766.2107,359.8691 C829.8083,364.4112 924.4909,367.6217 1006,356 C1021.6326,353.7711 1038.1775,349.7895 1053.4463,345.4067 " fill="none" id="ProcessoSeriacao-Classificacao" style="stroke: #A80036; stroke-width: 1.0;"/><text fill="#000000" font-family="sans-serif" font-size="13" lengthAdjust="spacingAndGlyphs" textLength="44" x="872.5" y="352.0669">resulta</text><polygon fill="#000000" points="919.5,346.0664,925.5,349.0664,919.5,352.0664,919.5,346.0664" style="stroke: #000000; stroke-width: 1.0;"/><text fill="#000000" font-family="sans-serif" font-size="13" lengthAdjust="spacingAndGlyphs" textLength="8" x="774.1215" y="373.4448">1</text><text fill="#000000" font-family="sans-serif" font-size="13" lengthAdjust="spacingAndGlyphs" textLength="7" x="1038.4316" y="361.0827">*</text><!--MD5=[3ef356a11e15094831544aa747dbb08f]
link ProcessoSeriacao to ProcessoAtribuicao--><path d="M766.2715,380.1114 C776.1646,383.1292 786.2632,385.8747 796,388 C876.8015,405.6371 971.3713,413.5899 1035.953,417.1533 " fill="none" id="ProcessoSeriacao-ProcessoAtribuicao" style="stroke: #A80036; stroke-width: 1.0;"/><text fill="#000000" font-family="sans-serif" font-size="13" lengthAdjust="spacingAndGlyphs" textLength="118" x="835.5" y="384.0669">prosseguindo com</text><polygon fill="#000000" points="956.5,378.0664,962.5,381.0664,956.5,384.0664,956.5,378.0664" style="stroke: #000000; stroke-width: 1.0;"/><text fill="#000000" font-family="sans-serif" font-size="13" lengthAdjust="spacingAndGlyphs" textLength="8" x="774.1886" y="395.7746">1</text><text fill="#000000" font-family="sans-serif" font-size="13" lengthAdjust="spacingAndGlyphs" textLength="8" x="1020.0242" y="429.6944">1</text><!--MD5=[7d06a2927183570e13ebe5ea47997a17]
link ProcessoAtribuicao to Adjudicacao--><path d="M1189.1292,420 C1233.3259,420 1289.0589,420 1334.9757,420 " fill="none" id="ProcessoAtribuicao-Adjudicacao" style="stroke: #A80036; stroke-width: 1.0;"/><text fill="#000000" font-family="sans-serif" font-size="13" lengthAdjust="spacingAndGlyphs" textLength="44" x="1233.5" y="416.0669">resulta</text><polygon fill="#000000" points="1280.5,410.0664,1286.5,413.0664,1280.5,416.0664,1280.5,410.0664" style="stroke: #000000; stroke-width: 1.0;"/><text fill="#000000" font-family="sans-serif" font-size="13" lengthAdjust="spacingAndGlyphs" textLength="8" x="1197.0661" y="432.8213">1</text><text fill="#000000" font-family="sans-serif" font-size="13" lengthAdjust="spacingAndGlyphs" textLength="8" x="1319.1103" y="432.7067">1</text><!--MD5=[471b8c6ff5fcf31b4b6fb9b4f947344d]
link Classificacao to Candidatura--><path d="M1171.5587,313.8959 C1209.9114,306.1738 1260.8038,294.9625 1305,282 C1319.1742,277.8428 1334.1087,272.8602 1348.3996,267.7839 " fill="none" id="Classificacao-Candidatura" style="stroke: #A80036; stroke-width: 1.0;"/><text fill="#000000" font-family="sans-serif" font-size="13" lengthAdjust="spacingAndGlyphs" textLength="71" x="1220" y="278.0669">referente a</text><polygon fill="#000000" points="1294,272.0664,1300,275.0664,1294,278.0664,1294,272.0664" style="stroke: #000000; stroke-width: 1.0;"/><text fill="#000000" font-family="sans-serif" font-size="13" lengthAdjust="spacingAndGlyphs" textLength="24" x="1179.3307" y="325.5972">0..1</text><text fill="#000000" font-family="sans-serif" font-size="13" lengthAdjust="spacingAndGlyphs" textLength="8" x="1332.3455" y="283.5982">1</text><!--MD5=[5b15c1ddd677f17858d8bc29b7259aac]
@startuml
skinparam classAttributeIconSize 0
hide methods
left to right direction

class Plataforma {
  -String designacao
}

class Organizacao {
  -String nome
  -String NIF
  -String website
  -String telefone
  -String email
}

class Colaborador {
  -String nome
  -String funcao
  -String telefone
  -String email
}

class TipoRegimento
{
    -String designacao
    -String descricaoRegras
}


class Freelancer {
    -String nome
    -String NIF
    -String telefone
    -String email
}

class Anuncio
{
    -Date dtInicioPublicitacao
    -Date dtFimPublicitacao
    -Date dtInicioCandidatura
    -Date dtFimCandidatura
    -Date dtInicioSeriacao
    -Date dtFimSeriacao
}

class Candidatura
{
    -Date dataCandidatura
    -Double valorPretendido
    -Integer nrDias
    -String txtApresentacao
    -String txtMotivacao
}

class Classificacao{
    -Integer lugar
    -String justificacao
}

class ProcessoSeriacao{
    -Date dataRealizacao
    -String conclusao
}

class ProcessoAtribuicao {
    -Date dataAtribuicao
}

class Adjudicacao {
    -String organizacao
    -String freelancer
    -String descTarefa
    -Date inicPeriodoAdjudicacao
    -Date fimPeriodoAdjudicacao
    -int valor
    -String refAnuncio
    -Date dataAdjudicacao
    -int numSequencialPAno
  }




Plataforma "1" - - "*" Organizacao : tem registadas >
Plataforma "1" - - "*" TipoRegimento : suporta >
Plataforma "1" - - "*" Anuncio : publicita >
Plataforma "1" - - "*" Freelancer : tem/usa  >

Organizacao "1" - - "1..*" Colaborador: tem >

Anuncio "*" - - "1" TipoRegimento: rege-se por >
Anuncio "*" - - "1" Colaborador: publicado por >
Anuncio "1" - - "*" Candidatura: recebe >
Anuncio "1" - - "0..1" ProcessoSeriacao: espoleta >

Candidatura "*" - - "1"  Freelancer: realizada por >

ProcessoSeriacao "*" - - "1" TipoRegimento: decorre em concordância com >
ProcessoSeriacao "1" - - "1..*" Colaborador: realizado por >
ProcessoSeriacao "1" - - "*" Classificacao: resulta >
ProcessoSeriacao "1" - - "1" ProcessoAtribuicao: prosseguindo com >

ProcessoAtribuicao "1" - - "1" Adjudicacao: resulta >

Classificacao "0..1" - - "1" Candidatura: referente a >
@enduml

PlantUML version 1.2019.12(Sun Nov 03 10:24:54 UTC 2019)
(GPL source distribution)
Java Runtime: OpenJDK Runtime Environment
JVM: OpenJDK 64-Bit Server VM
Java Version: 1.8.0_232-heroku-b09
Operating System: Linux
Default Encoding: UTF-8
Language: en
Country: US
--></g></svg>